<?xml version="1.0" encoding="UTF-8"?>
<svg width="200px" height="205px" viewBox="0 0 200 205" version="1.1" xmlns="http://www.w3.org/2000/svg" xmlns:xlink="http://www.w3.org/1999/xlink">
    <title>画板</title>
    <g id="画板" stroke="none" stroke-width="1" fill="none" fill-rule="evenodd">
        <g id="qrcode" transform="translate(13.333333, 15.333333)" fill-rule="nonzero">
            <path d="M0,26.6666666 C0,11.9390733 11.9390733,0 26.6666666,0 L53.3333332,0 C60.4057729,0 67.188544,2.80951566 72.1895141,7.81048575 C77.1904842,12.8114558 80,19.5942269 80,26.6666666 L80,53.3333332 C80,60.405773 77.1904843,67.1885441 72.1895142,72.1895142 C67.1885441,77.1904843 60.405773,80 53.3333332,80 L26.6666666,80 C19.5942269,80 12.8114558,77.1904842 7.81048575,72.1895141 C2.80951566,67.188544 0,60.4057729 0,53.3333332 L0,26.6666666 L0,26.6666666 Z M0,120 C0,112.92756 2.80951566,106.144789 7.81048575,101.143819 C12.8114558,96.142849 19.5942269,93.3333332 26.6666666,93.3333332 L53.3333332,93.3333332 C60.405773,93.3333332 67.1885441,96.1428489 72.1895142,101.143819 C77.1904843,106.144789 80,112.92756 80,120 L80,146.666667 C80,153.739106 77.1904842,160.521877 72.1895141,165.522847 C67.188544,170.523818 60.4057729,173.333333 53.3333332,173.333333 L26.6666666,173.333333 C11.9390733,173.333333 0,161.39426 0,146.666667 L0,120 L0,120 Z M120,0 C112.92756,0 106.144789,2.80951566 101.143819,7.81048575 C96.142849,12.8114558 93.3333332,19.5942269 93.3333332,26.6666666 L93.3333332,53.3333332 C93.3333332,60.405773 96.1428489,67.1885441 101.143819,72.1895142 C106.144789,77.1904843 112.92756,80 120,80 L146.666667,80 C153.739106,80 160.521877,77.1904842 165.522847,72.1895141 C170.523818,67.188544 173.333333,60.4057729 173.333333,53.3333332 L173.333333,26.6666666 C173.333333,11.9390733 161.39426,0 146.666667,0 L120,0 L120,0 Z" id="形状" fill="#007CFF"></path>
            <path d="M20,33.3333332 C20,25.9695367 25.9695367,20 33.3333332,20 L46.6666666,20 C54.0304632,20 60,25.9695366 60,33.3333332 L60,46.6666666 C60,54.0304633 54.0304633,60 46.6666666,60 L33.3333332,60 C25.9695366,60 20,54.0304632 20,46.6666666 L20,33.3333332 L20,33.3333332 Z M113.333333,33.3333332 C113.333333,25.9695366 119.30287,20 126.666667,20 L140,20 C147.363797,20 153.333333,25.9695367 153.333333,33.3333332 L153.333333,46.6666666 C153.333333,54.0304632 147.363797,60 140,60 L126.666667,60 C119.30287,60 113.333333,54.0304633 113.333333,46.6666666 L113.333333,33.3333332 L113.333333,33.3333332 Z M33.3333332,113.333333 C25.9695366,113.333333 20,119.30287 20,126.666667 L20,140 C20,147.363797 25.9695367,153.333333 33.3333332,153.333333 L46.6666666,153.333333 C54.0304632,153.333333 60,147.363797 60,140 L60,126.666667 C60,119.30287 54.0304633,113.333333 46.6666666,113.333333 L33.3333332,113.333333 L33.3333332,113.333333 Z" id="形状" fill="#FFFFFF"></path>
            <path d="M160,93.3333332 C158.23189,93.3333332 156.536197,94.0357121 155.285955,95.2859546 C154.035712,96.5361972 153.333333,98.23189 153.333333,100 L153.333333,166.666667 C153.333333,168.434777 154.035712,170.130469 155.285955,171.380712 C156.536197,172.630954 158.23189,173.333333 160,173.333333 L166.666667,173.333333 C170.348565,173.333333 173.333333,170.348565 173.333333,166.666667 L173.333333,100 C173.333333,98.2318901 172.630954,96.5361973 171.380712,95.2859547 C170.130469,94.0357122 168.434777,93.3333332 166.666667,93.3333332 L160,93.3333332 Z M113.333333,100 L113.333333,153.333333 L133.333333,153.333333 C135.101443,153.333333 136.797136,154.035712 138.047379,155.285955 C139.297621,156.536197 140,158.23189 140,160 L140,166.666667 C140,168.434777 139.297621,170.130469 138.047378,171.380712 C136.797136,172.630954 135.101443,173.333333 133.333333,173.333333 L100,173.333333 C98.2318901,173.333333 96.5361973,172.630954 95.2859547,171.380712 C94.0357122,170.130469 93.3333332,168.434777 93.3333332,166.666667 L93.3333332,100 C93.3333332,98.23189 94.0357121,96.5361972 95.2859546,95.2859546 C96.5361972,94.0357121 98.23189,93.3333332 100,93.3333332 L106.666667,93.3333332 C108.434777,93.3333332 110.130469,94.0357122 111.380712,95.2859547 C112.630954,96.5361973 113.333333,98.2318901 113.333333,100 L113.333333,100 Z M133.333333,106.666667 C129.651435,106.666667 126.666667,109.651435 126.666667,113.333333 L126.666667,133.333333 C126.666667,137.015232 129.651435,140 133.333333,140 C137.015232,140 140,137.015232 140,133.333333 L140,113.333333 C140,111.565223 139.297621,109.86953 138.047378,108.619288 C136.797136,107.369045 135.101443,106.666667 133.333333,106.666667 L133.333333,106.666667 Z" id="形状" fill="#626262"></path>
        </g>
    </g>
</svg>